<svg fill="currentColor" id="Layer_1" xmlns="http://www.w3.org/2000/svg" 
	 viewBox="0 0 341.217 341.217" xml:space="preserve">
<g>
	<g>
		<g>
			<path d="M315.771,275.042h-15.147v-18.86c0-15.202-12.368-27.57-27.571-27.57H179.61v-17.266
				c54.178-4.583,96.866-50.136,96.866-105.48C276.475,47.491,228.983,0,170.608,0S64.742,47.491,64.742,105.866
				c0,55.343,42.688,100.896,96.866,105.48v17.266H68.165c-15.203,0-27.571,12.368-27.571,27.57v18.86H25.446c-4.971,0-9,4.029-9,9
				v48.175c0,4.971,4.029,9,9,9h48.296c4.971,0,9-4.029,9-9v-48.175c0-4.971-4.029-9-9-9H58.594v-18.86
				c0-5.277,4.294-9.57,9.571-9.57h93.443v28.43H146.46c-4.971,0-9,4.029-9,9v48.175c0,4.971,4.029,9,9,9h48.297
				c4.971,0,9-4.029,9-9v-48.175c0-4.971-4.029-9-9-9h-15.148v-28.43h93.443c5.277,0,9.571,4.293,9.571,9.57v18.86h-15.148
				c-4.971,0-9,4.029-9,9v48.175c0,4.971,4.029,9,9,9h48.296c4.971,0,9-4.029,9-9v-48.175
				C324.771,279.071,320.741,275.042,315.771,275.042z M64.742,293.042v30.175H34.446v-30.175H64.742z M185.757,293.042v30.175
				H155.46v-30.175H185.757z M170.608,193.732c-48.449,0-87.866-39.417-87.866-87.866C82.742,57.417,122.159,18,170.608,18
				c48.449,0,87.866,39.417,87.866,87.866C258.474,154.316,219.057,193.732,170.608,193.732z M306.771,323.217h-30.296v-30.175
				h30.296V323.217z"/>
			<path d="M170.609,30.293c-41.671,0-75.573,33.902-75.573,75.573c0,41.671,33.902,75.573,75.573,75.573
				c41.671,0,75.573-33.902,75.573-75.573C246.182,64.195,212.28,30.293,170.609,30.293z M179.608,162.731v-1.241
				c0-4.971-4.029-9-9-9c-4.971,0-9,4.029-9,9v1.241c-24.552-3.872-43.993-23.313-47.865-47.865h1.242c4.971,0,9-4.029,9-9
				c0-4.971-4.029-9-9-9h-1.242c3.871-24.552,23.313-43.993,47.865-47.865v1.241c0,4.971,4.029,9,9,9c4.971,0,9-4.029,9-9v-1.241
				c24.552,3.871,43.994,23.313,47.865,47.865h-1.242c-4.971,0-9,4.029-9,9c0,4.971,4.029,9,9,9h1.242
				C223.602,139.418,204.16,158.86,179.608,162.731z"/>
			<path d="M197.058,102.78h-6.303h-11.147V86.863V74.012c0-4.971-4.029-9-9-9c-4.971,0-9,4.029-9,9v37.768c0,4.97,4.03,9,9,9h26.45
				c4.971,0,9-4.029,9-9C206.058,106.809,202.029,102.78,197.058,102.78z"/>
		</g>
	</g>
</g>
</svg>